<svg viewBox="0 0 40 40" fill="none" xmlns="http://www.w3.org/2000/svg">
  <path
    d="M20 14.793A5.218 5.218 0 0 0 14.793 20 5.218 5.218 0 0 0 20 25.207 5.218 5.218 0 0 0 25.207 20 5.218 5.218 0 0 0 20 14.793ZM35.617 20c0-2.156.02-4.293-.101-6.445-.121-2.5-.692-4.719-2.52-6.547-1.832-1.832-4.047-2.398-6.547-2.52-2.156-.12-4.293-.101-6.445-.101-2.156 0-4.293-.02-6.445.101-2.5.122-4.72.692-6.547 2.52-1.832 1.832-2.399 4.047-2.52 6.547-.12 2.156-.101 4.293-.101 6.445s-.02 4.293.101 6.445c.121 2.5.692 4.72 2.52 6.547 1.832 1.832 4.047 2.399 6.547 2.52 2.156.121 4.293.102 6.445.102 2.156 0 4.293.019 6.445-.102 2.5-.121 4.719-.691 6.547-2.52 1.832-1.832 2.399-4.046 2.52-6.546.125-2.153.101-4.29.101-6.446ZM20 28.012A8 8 0 0 1 11.988 20 8 8 0 0 1 20 11.99 8 8 0 0 1 28.012 20 8 8 0 0 1 20 28.012Zm8.34-14.48a1.869 1.869 0 0 1-1.871-1.872c0-1.035.836-1.87 1.87-1.87a1.869 1.869 0 0 1 1.73 2.587 1.868 1.868 0 0 1-1.73 1.154Z"
    fill="currentColor" />
</svg>