<svg viewBox="0 0 40 40" fill="none" xmlns="http://www.w3.org/2000/svg">
  <path
    d="M34.375 4.375H5.625c-.691 0-1.25.559-1.25 1.25v28.75c0 .691.559 1.25 1.25 1.25h28.75c.691 0 1.25-.559 1.25-1.25V5.625c0-.691-.559-1.25-1.25-1.25Zm-20.73 26.629H9.008V16.09h4.637v14.914ZM11.328 14.05a2.688 2.688 0 1 1 0-5.375 2.688 2.688 0 0 1 0 5.375Zm19.676 16.953H26.37V23.75c0-1.73-.031-3.953-2.41-3.953-2.41 0-2.781 1.883-2.781 3.828v7.379h-4.63V16.09h4.446v2.039h.063c.617-1.172 2.128-2.41 4.386-2.41 4.696 0 5.559 3.09 5.559 7.105v8.18Z"
    fill="currentColor" />
</svg>