<svg viewBox="0 0 40 40" fill="none" xmlns="http://www.w3.org/2000/svg">
  <path
    d="M36.25 9.934a13.361 13.361 0 0 1-3.836 1.03 6.645 6.645 0 0 0 2.93-3.671 13.15 13.15 0 0 1-4.227 1.61 6.645 6.645 0 0 0-4.867-2.106 6.66 6.66 0 0 0-6.66 6.664c0 .516.062 1.031.164 1.527A18.93 18.93 0 0 1 6.02 8.016a6.614 6.614 0 0 0-.907 3.363 6.665 6.665 0 0 0 2.969 5.55 6.718 6.718 0 0 1-3.012-.847v.082a6.662 6.662 0 0 0 5.34 6.54 7.057 7.057 0 0 1-1.754.226 8.86 8.86 0 0 1-1.258-.102 6.673 6.673 0 0 0 6.227 4.621 13.35 13.35 0 0 1-8.27 2.848c-.558 0-1.074-.02-1.609-.082a18.862 18.862 0 0 0 10.23 2.988c12.25 0 18.954-10.148 18.954-18.957 0-.289 0-.578-.02-.867a14.349 14.349 0 0 0 3.34-3.445Z"
    fill="currentColor" />
</svg>